<svg xmlns="http://www.w3.org/2000/svg" xmlns:xlink="http://www.w3.org/1999/xlink" width="500" zoomAndPan="magnify" viewBox="0 0 375 374.999991" height="500" preserveAspectRatio="xMidYMid meet" version="1.0"><defs><filter x="0%" y="0%" width="100%" height="100%" id="c6058bf98d"><feColorMatrix values="0 0 0 0 1 0 0 0 0 1 0 0 0 0 1 0 0 0 1 0" color-interpolation-filters="sRGB"/></filter><clipPath id="e3bd4b34e9"><path d="M 102.75 102.203125 L 249 102.203125 L 249 263 L 102.75 263 Z M 102.75 102.203125 " clip-rule="nonzero"/></clipPath><clipPath id="c8d66da186"><path d="M 102.75 163 L 162 163 L 162 249 L 102.75 249 Z M 102.75 163 " clip-rule="nonzero"/></clipPath><clipPath id="10f7baa348"><path d="M 103 158 L 272.25 158 L 272.25 272.453125 L 103 272.453125 Z M 103 158 " clip-rule="nonzero"/></clipPath><mask id="d8043f3573"><g filter="url(#c6058bf98d)"><rect x="-37.5" width="450" fill="#000000" y="-37.499999" height="449.999989" fill-opacity="0.3"/></g></mask><clipPath id="acad729ccd"><path d="M 0.160156 0.679688 L 125.199219 0.679688 L 125.199219 88.519531 L 0.160156 88.519531 Z M 0.160156 0.679688 " clip-rule="nonzero"/></clipPath><clipPath id="01f510e3bd"><rect x="0" width="126" y="0" height="89"/></clipPath><mask id="fd4b42bce2"><g filter="url(#c6058bf98d)"><rect x="-37.5" width="450" fill="#000000" y="-37.499999" height="449.999989" fill-opacity="0.8"/></g></mask><clipPath id="28de2cd7e8"><path d="M 0.480469 0.199219 L 1.679688 0.199219 L 1.679688 30.199219 L 0.480469 30.199219 Z M 0.480469 0.199219 " clip-rule="nonzero"/></clipPath><clipPath id="84c045a5e8"><rect x="0" width="2" y="0" height="31"/></clipPath><mask id="7a38c71164"><g filter="url(#c6058bf98d)"><rect x="-37.5" width="450" fill="#000000" y="-37.499999" height="449.999989" fill-opacity="0.8"/></g></mask><clipPath id="2da626c82b"><path d="M 0.121094 0.121094 L 4.679688 0.121094 L 4.679688 22.441406 L 0.121094 22.441406 Z M 0.121094 0.121094 " clip-rule="nonzero"/></clipPath><clipPath id="0f2cf1dec9"><rect x="0" width="5" y="0" height="23"/></clipPath><mask id="3a4a5770a8"><g filter="url(#c6058bf98d)"><rect x="-37.5" width="450" fill="#000000" y="-37.499999" height="449.999989" fill-opacity="0.8"/></g></mask><clipPath id="3f32dbf41b"><path d="M 0.121094 0.199219 L 107.640625 0.199219 L 107.640625 114.921875 L 0.121094 114.921875 Z M 0.121094 0.199219 " clip-rule="nonzero"/></clipPath><clipPath id="6bd41268fa"><rect x="0" width="108" y="0" height="115"/></clipPath><mask id="366a504ad2"><g filter="url(#c6058bf98d)"><rect x="-37.5" width="450" fill="#000000" y="-37.499999" height="449.999989" fill-opacity="0.4"/></g></mask><clipPath id="99e729a0ec"><path d="M 0.480469 0.160156 L 94.800781 0.160156 L 94.800781 75.28125 L 0.480469 75.28125 Z M 0.480469 0.160156 " clip-rule="nonzero"/></clipPath><clipPath id="745357b8db"><rect x="0" width="95" y="0" height="76"/></clipPath><mask id="cc0b94f5f2"><g filter="url(#c6058bf98d)"><rect x="-37.5" width="450" fill="#000000" y="-37.499999" height="449.999989" fill-opacity="0.8"/></g></mask><clipPath id="e6719d5f6a"><path d="M 0.320312 0.679688 L 0.800781 0.679688 L 0.800781 1.398438 L 0.320312 1.398438 Z M 0.320312 0.679688 " clip-rule="nonzero"/></clipPath><clipPath id="c2f498a5fb"><rect x="0" width="1" y="0" height="2"/></clipPath><mask id="646e01516f"><g filter="url(#c6058bf98d)"><rect x="-37.5" width="450" fill="#000000" y="-37.499999" height="449.999989" fill-opacity="0.8"/></g></mask><clipPath id="7d74571cf0"><path d="M 0.679688 0.320312 L 8 0.320312 L 8 19 L 0.679688 19 Z M 0.679688 0.320312 " clip-rule="nonzero"/></clipPath><clipPath id="6a759438c5"><rect x="0" width="9" y="0" height="20"/></clipPath><clipPath id="d439da537c"><path d="M 102.75 196 L 176 196 L 176 265 L 102.75 265 Z M 102.75 196 " clip-rule="nonzero"/></clipPath><mask id="3f7699e152"><g filter="url(#c6058bf98d)"><rect x="-37.5" width="450" fill="#000000" y="-37.499999" height="449.999989" fill-opacity="0.8"/></g></mask><clipPath id="2b6a780f4b"><path d="M 0.75 0.800781 L 73.199219 0.800781 L 73.199219 68.238281 L 0.75 68.238281 Z M 0.75 0.800781 " clip-rule="nonzero"/></clipPath><clipPath id="bb1bc58b40"><rect x="0" width="74" y="0" height="69"/></clipPath><mask id="dc1f85df1b"><g filter="url(#c6058bf98d)"><rect x="-37.5" width="450" fill="#000000" y="-37.499999" height="449.999989" fill-opacity="0.3"/></g></mask><clipPath id="e624813c89"><path d="M 0.121094 0.398438 L 81 0.398438 L 81 68.800781 L 0.121094 68.800781 Z M 0.121094 0.398438 " clip-rule="nonzero"/></clipPath><clipPath id="8f5b6e1cc2"><rect x="0" width="82" y="0" height="69"/></clipPath><mask id="de299da0e3"><g filter="url(#c6058bf98d)"><rect x="-37.5" width="450" fill="#000000" y="-37.499999" height="449.999989" fill-opacity="0.4"/></g></mask><clipPath id="7472ec8098"><path d="M 0 1 L 75.359375 1 L 75.359375 63.960938 L 0 63.960938 Z M 0 1 " clip-rule="nonzero"/></clipPath><clipPath id="d047f1eb5f"><rect x="0" width="76" y="0" height="64"/></clipPath><mask id="9967454283"><g filter="url(#c6058bf98d)"><rect x="-37.5" width="450" fill="#000000" y="-37.499999" height="449.999989" fill-opacity="0.3"/></g></mask><clipPath id="16164b9c97"><path d="M 0.199219 1 L 29 1 L 29 66.320312 L 0.199219 66.320312 Z M 0.199219 1 " clip-rule="nonzero"/></clipPath><clipPath id="50cdb6954e"><rect x="0" width="29" y="0" height="67"/></clipPath><mask id="f12c0be36e"><g filter="url(#c6058bf98d)"><rect x="-37.5" width="450" fill="#000000" y="-37.499999" height="449.999989" fill-opacity="0.5"/></g></mask><clipPath id="dd46858a6f"><path d="M 0.359375 0 L 18 0 L 18 36.960938 L 0.359375 36.960938 Z M 0.359375 0 " clip-rule="nonzero"/></clipPath><clipPath id="05ae5d0b6c"><rect x="0" width="19" y="0" height="37"/></clipPath><clipPath id="1e99d4680b"><path d="M 214 261 L 238 261 L 238 272.453125 L 214 272.453125 Z M 214 261 " clip-rule="nonzero"/></clipPath><clipPath id="4016ef1fc3"><path d="M 213 219 L 272.25 219 L 272.25 267 L 213 267 Z M 213 219 " clip-rule="nonzero"/></clipPath><mask id="39bf40f991"><g filter="url(#c6058bf98d)"><rect x="-37.5" width="450" fill="#000000" y="-37.499999" height="449.999989" fill-opacity="0.4"/></g></mask><clipPath id="4af983a2be"><path d="M 0.121094 0.359375 L 59.25 0.359375 L 59.25 47 L 0.121094 47 Z M 0.121094 0.359375 " clip-rule="nonzero"/></clipPath><clipPath id="44ea3303fb"><rect x="0" width="60" y="0" height="48"/></clipPath><clipPath id="6573fd0f24"><path d="M 213 237 L 270 237 L 270 272.453125 L 213 272.453125 Z M 213 237 " clip-rule="nonzero"/></clipPath><mask id="9378835a03"><g filter="url(#c6058bf98d)"><rect x="-37.5" width="450" fill="#000000" y="-37.499999" height="449.999989" fill-opacity="0.8"/></g></mask><clipPath id="770e2f7f14"><path d="M 0.121094 0.601562 L 57 0.601562 L 57 35.453125 L 0.121094 35.453125 Z M 0.121094 0.601562 " clip-rule="nonzero"/></clipPath><clipPath id="480fd6a215"><rect x="0" width="57" y="0" height="36"/></clipPath><mask id="78e40df4ca"><g filter="url(#c6058bf98d)"><rect x="-37.5" width="450" fill="#000000" y="-37.499999" height="449.999989" fill-opacity="0.3"/></g></mask><clipPath id="3b263e9c36"><path d="M 0.480469 0.71875 L 41.519531 0.71875 L 41.519531 15 L 0.480469 15 Z M 0.480469 0.71875 " clip-rule="nonzero"/></clipPath><clipPath id="6fa1d7b4b4"><rect x="0" width="42" y="0" height="16"/></clipPath><mask id="fdcc8142dd"><g filter="url(#c6058bf98d)"><rect x="-37.5" width="450" fill="#000000" y="-37.499999" height="449.999989" fill-opacity="0.5"/></g></mask><clipPath id="fadc5e03c8"><path d="M 1 0.320312 L 18 0.320312 L 18 8 L 1 8 Z M 1 0.320312 " clip-rule="nonzero"/></clipPath><clipPath id="3e7ae1ad74"><rect x="0" width="19" y="0" height="8"/></clipPath><mask id="0761f75509"><g filter="url(#c6058bf98d)"><rect x="-37.5" width="450" fill="#000000" y="-37.499999" height="449.999989" fill-opacity="0.8"/></g></mask><clipPath id="11204f0ed9"><path d="M 1 0.519531 L 24.28125 0.519531 L 24.28125 43 L 1 43 Z M 1 0.519531 " clip-rule="nonzero"/></clipPath><clipPath id="c26f0ad065"><rect x="0" width="25" y="0" height="44"/></clipPath></defs><rect x="-37.5" width="450" fill="#ffffff" y="-37.499999" height="449.999989" fill-opacity="1"/><rect x="-37.5" width="450" fill="#3d405b" y="-37.499999" height="449.999989" fill-opacity="1"/><g clip-path="url(#e3bd4b34e9)"><path fill="#ffffff" d="M 230.230469 235.460938 C 213.636719 237.75 202 227.847656 205.234375 204.03125 C 208.425781 183.429688 202.445312 159.132812 201.34375 158.738281 C 201.011719 157.683594 199.777344 153.894531 199.722656 153.757812 C 199.65625 153.582031 199.339844 152.734375 199.246094 152.492188 C 195.109375 140.894531 190.4375 136.523438 186.84375 135.324219 C 184.3125 134.480469 181.957031 135.148438 179.152344 136.808594 C 176.226562 138.550781 172.960938 142.199219 169.011719 148.800781 C 165.8125 154.179688 161.78125 163.75 161.78125 163.75 C 161.769531 163.777344 161.757812 163.804688 161.742188 163.832031 C 161.578125 164.199219 161.414062 164.578125 161.253906 164.960938 C 159.933594 168.039062 158.558594 171.425781 157.101562 175.15625 C 142.4375 212.960938 157.507812 266.105469 120.496094 262.171875 C 85.890625 258.496094 110.800781 180.65625 125.503906 155.296875 C 140.207031 129.921875 169.367188 87.828125 198.386719 107.117188 C 227.410156 126.410156 243.378906 168.417969 246.988281 188.863281 C 251.179688 212.605469 245.816406 233.3125 230.230469 235.460938 Z M 230.230469 235.460938 " fill-opacity="1" fill-rule="evenodd"/></g><g clip-path="url(#c8d66da186)"><path fill="#222222" d="M 103.015625 233.285156 C 102.894531 233.609375 103.316406 242.542969 103.777344 245.332031 C 104.242188 248.121094 105.984375 248.121094 105.984375 248.121094 C 105.984375 248.121094 116.003906 228.792969 128.703125 209.707031 C 141.417969 190.636719 155.863281 179.324219 155.863281 179.324219 C 158.421875 170.800781 161.757812 163.832031 161.757812 163.832031 C 161.757812 163.832031 117.894531 191.601562 103.015625 233.285156 Z M 103.015625 233.285156 " fill-opacity="1" fill-rule="evenodd"/></g><g clip-path="url(#10f7baa348)"><path fill="#ffffff" d="M 271.300781 230.957031 C 267.679688 250.925781 258.671875 265.34375 241.488281 271.292969 C 238.4375 272.230469 235.988281 273.019531 230.652344 272.707031 C 226.023438 272.4375 212.636719 269.121094 213.335938 254.574219 C 213.921875 238.742188 228.636719 237.65625 233.699219 238.5 C 238.246094 239.261719 241.011719 240.390625 244.945312 241.507812 C 252.894531 243.765625 264.03125 244.367188 268.332031 231.390625 C 269.246094 228.640625 269.503906 225.417969 269.148438 221.957031 C 267.976562 210.496094 260.179688 196.351562 247.53125 187.476562 C 237.0625 180.140625 223.300781 176.410156 207.25 180.832031 C 165.976562 192.199219 150.183594 224.804688 145.515625 243.425781 C 140.847656 262.050781 124.566406 269.183594 112.503906 260.523438 C 77.546875 235.394531 153.179688 154.640625 217.8125 158.601562 C 257.769531 161.054688 276.746094 200.953125 271.300781 230.957031 Z M 271.300781 230.957031 " fill-opacity="1" fill-rule="evenodd"/></g><path fill="#222222" d="M 198.199219 159.773438 C 198.199219 159.773438 226.1875 154.558594 244.222656 167.125 C 244.222656 167.125 249.152344 177.511719 250.171875 189.492188 C 250.171875 189.492188 232.53125 172.980469 202.566406 182.289062 C 202.566406 182.289062 201.316406 166.785156 198.199219 159.773438 " fill-opacity="1" fill-rule="evenodd"/><path fill="#ffffff" d="M 201.34375 158.753906 C 201.34375 158.753906 205.480469 171.617188 205.65625 182.441406 C 205.65625 182.441406 229.875 174.9375 247.027344 189.179688 C 247.027344 189.179688 243.871094 171.945312 239.089844 162.539062 C 239.105469 162.539062 220.796875 153.714844 201.34375 158.753906 " fill-opacity="1" fill-rule="evenodd"/><g mask="url(#d8043f3573)"><g transform="matrix(1, 0, 0, 1, 116, 103)"><g clip-path="url(#01f510e3bd)"><g clip-path="url(#acad729ccd)"><path fill="#e3ebf2" d="M 125.171875 81.113281 C 125.171875 81.113281 124.410156 72.511719 118.652344 57.742188 C 116.800781 52.976562 114.417969 47.558594 111.382812 41.582031 C 104.441406 27.929688 84.894531 0.90625 68.054688 0.90625 C 66.488281 0.90625 64.9375 1.136719 63.425781 1.640625 C 23.429688 14.941406 0.574219 80.761719 0.574219 80.761719 C -0.597656 85.375 1.417969 88.398438 4.972656 88.398438 C 9.382812 88.398438 16.175781 83.742188 22.234375 71.640625 C 32.414062 51.261719 49.621094 12.367188 67.671875 12.367188 C 68.203125 12.367188 68.734375 12.394531 69.265625 12.464844 C 80.113281 13.851562 92.910156 26.089844 101.011719 35.972656 C 104.695312 40.472656 109.148438 48.25 113.226562 56.089844 C 113.214844 56.089844 125.175781 81.113281 125.175781 81.113281 Z M 94.789062 21.246094 C 94.679688 21.433594 94.503906 21.53125 94.269531 21.53125 C 91.425781 21.53125 80.058594 8.027344 69.386719 7.808594 L 68.910156 7.808594 C 57.828125 7.808594 50.125 15.582031 42.078125 26.730469 C 33.925781 38.042969 19.058594 74.335938 13.246094 75.464844 C 12.550781 75.601562 11.914062 75.667969 11.355469 75.667969 C 7.285156 75.667969 7 72.019531 10.523438 64.820312 C 10.523438 64.820312 24.871094 38.683594 36.757812 24.15625 C 46.257812 12.546875 56.34375 3.738281 68.3125 3.738281 C 69.195312 3.738281 70.09375 3.792969 71.007812 3.886719 C 80.34375 4.910156 96.300781 18.683594 94.789062 21.246094 Z M 94.789062 21.246094 " fill-opacity="1" fill-rule="nonzero"/></g></g></g></g><path fill="#e3ebf2" d="M 184.300781 106.75 C 172.347656 106.75 162.246094 115.558594 152.742188 127.171875 C 140.859375 141.695312 126.511719 167.832031 126.511719 167.832031 C 122.984375 175.035156 123.273438 178.683594 127.34375 178.683594 C 127.898438 178.683594 128.527344 178.613281 129.234375 178.476562 C 135.046875 177.335938 149.914062 141.054688 158.066406 129.742188 C 166.097656 118.582031 173.816406 110.820312 184.898438 110.820312 L 185.375 110.820312 C 196.0625 111.039062 207.425781 124.542969 210.257812 124.542969 C 210.492188 124.542969 210.667969 124.449219 210.777344 124.257812 C 212.289062 121.699219 196.332031 107.921875 186.996094 106.902344 C 186.097656 106.792969 185.199219 106.75 184.300781 106.75 " fill-opacity="1" fill-rule="nonzero"/><g mask="url(#fd4b42bce2)"><g transform="matrix(1, 0, 0, 1, 204, 181)"><g clip-path="url(#84c045a5e8)"><g clip-path="url(#28de2cd7e8)"><path fill="#222222" d="M 0.664062 30.039062 C 0.746094 28.679688 0.839844 27.277344 0.949219 25.847656 C 0.800781 27.128906 0.691406 28.542969 0.664062 30.039062 Z M 1.628906 0.351562 C 1.621094 0.351562 1.613281 0.355469 1.601562 0.363281 C 1.617188 0.691406 1.628906 1.019531 1.65625 1.34375 C 1.65625 1.019531 1.644531 0.691406 1.628906 0.351562 Z M 1.628906 0.351562 " fill-opacity="1" fill-rule="nonzero"/></g></g></g></g><g mask="url(#7a38c71164)"><g transform="matrix(1, 0, 0, 1, 201, 159)"><g clip-path="url(#0f2cf1dec9)"><g clip-path="url(#2da626c82b)"><path fill="#222222" d="M 4.207031 17.273438 C 4.386719 18.921875 4.523438 20.621094 4.617188 22.363281 L 4.644531 22.363281 C 4.578125 20.675781 4.414062 18.976562 4.207031 17.273438 M 0.519531 0.296875 L 0.480469 0.296875 C 0.4375 0.296875 0.398438 0.3125 0.355469 0.3125 C 0.980469 2.449219 1.648438 4.804688 2.410156 7.390625 C 2.425781 7.429688 2.4375 7.457031 2.4375 7.5 C 1.636719 4.070312 0.847656 1.398438 0.519531 0.296875 " fill-opacity="1" fill-rule="nonzero"/></g></g></g></g><g mask="url(#3a4a5770a8)"><g transform="matrix(1, 0, 0, 1, 141, 121)"><g clip-path="url(#6bd41268fa)"><g clip-path="url(#3f32dbf41b)"><path fill="#222222" d="M 105.199219 98.699219 C 103.835938 103.082031 101.820312 106.757812 99.140625 109.464844 C 98.351562 110.257812 97.507812 110.964844 96.621094 111.589844 C 94.484375 113.085938 92.007812 114.066406 89.214844 114.449219 C 87.675781 114.667969 86.195312 114.761719 84.75 114.761719 C 82.628906 114.761719 80.613281 114.53125 78.734375 114.066406 C 77.523438 113.714844 76.277344 113.359375 75.050781 112.800781 C 73.648438 112.175781 72.429688 111.304688 71.328125 110.460938 C 67.570312 107.410156 64.984375 102.726562 63.992188 96.34375 C 63.691406 94.191406 63.609375 92.042969 63.652344 90.039062 C 63.730469 88.679688 63.828125 87.277344 63.9375 85.847656 C 64.535156 77.855469 65.367188 68.996094 64.65625 61.441406 L 64.65625 61.34375 C 64.65625 61.019531 64.644531 60.691406 64.628906 60.351562 C 64.5625 58.675781 64.441406 56.960938 64.207031 55.273438 C 63.703125 51.570312 63.175781 48.414062 62.4375 45.5 C 62.042969 43.785156 61.648438 42.246094 61.308594 41.019531 C 60.96875 39.78125 60.695312 38.84375 60.519531 38.296875 C 60.410156 37.945312 60.03125 36.773438 60.042969 36.773438 C 47.316406 -4.121094 30.980469 17.660156 20.742188 42.84375 C 20.402344 43.074219 9.375 50.847656 0.226562 59.070312 C 0.226562 59.070312 18.644531 22.234375 25.25 12.570312 C 31.933594 2.535156 40.398438 -3.414062 50.59375 3.449219 C 58.710938 8.742188 65.257812 21.988281 68.46875 36.378906 C 69.53125 41.117188 70.226562 45.988281 70.496094 50.726562 C 70.675781 53.832031 70.660156 57.015625 70.523438 60.175781 C 70.210938 67.046875 69.246094 73.785156 68.144531 79.246094 C 66.835938 85.710938 68.648438 92.476562 73.191406 97.253906 C 74.988281 99.148438 77.15625 100.671875 79.753906 101.488281 C 81.183594 101.9375 82.640625 102.15625 84.070312 102.15625 C 92.632812 102.15625 100.609375 94.628906 101.683594 86.09375 C 102.636719 78.496094 102.691406 71.5 102.3125 65.441406 C 101.453125 51.707031 98.609375 42.679688 98.664062 42.679688 L 99.097656 43.621094 C 100.472656 46.4375 101.414062 49.542969 102.476562 52.699219 C 103.535156 55.84375 105.753906 66.464844 106.042969 68.082031 C 107.894531 78.6875 107.894531 89.375 105.199219 98.699219 Z M 105.199219 98.699219 " fill-opacity="1" fill-rule="nonzero"/></g></g></g></g><g mask="url(#366a504ad2)"><g transform="matrix(1, 0, 0, 1, 108, 176)"><g clip-path="url(#745357b8db)"><g clip-path="url(#99e729a0ec)"><path fill="#222222" d="M 93.792969 0.328125 C 47.414062 11.503906 30.613281 49.375 24.460938 59.285156 C 21.574219 63.925781 17.804688 66.472656 14.414062 66.472656 C 10.574219 66.472656 7.226562 63.191406 6.21875 55.949219 C 4.328125 42.335938 17.203125 25.375 17.203125 25.375 C 17.203125 25.375 4.925781 38.621094 3.277344 43.644531 C 1.644531 48.667969 -0.015625 54.304688 0.898438 60.742188 C 1.863281 67.617188 6.519531 74.941406 14.414062 75.1875 C 14.632812 75.1875 14.835938 75.199219 15.039062 75.199219 C 30.722656 75.199219 31.5 57.800781 43.898438 41.847656 C 53.226562 29.867188 67.027344 20.964844 67.027344 20.964844 C 67.027344 20.964844 64.210938 23.144531 60.65625 26.65625 C 61.214844 26.152344 61.800781 25.632812 62.398438 25.117188 C 70.59375 17.4375 81.132812 10.671875 94.582031 6.25 C 94.582031 6.195312 94.566406 6.074219 94.554688 5.894531 L 93.792969 0.328125 " fill-opacity="1" fill-rule="nonzero"/></g></g></g></g><g mask="url(#cc0b94f5f2)"><g transform="matrix(1, 0, 0, 1, 202, 181)"><g clip-path="url(#c2f498a5fb)"><g clip-path="url(#e6719d5f6a)"><path fill="#222222" d="M 0.539062 0.894531 C 0.554688 1.085938 0.566406 1.207031 0.566406 1.25 L 0.566406 1.277344 L 0.582031 1.277344 L 0.539062 0.894531 " fill-opacity="1" fill-rule="nonzero"/></g></g></g></g><path fill="#97bcc7" d="M 137.621094 258.019531 C 135.332031 260.277344 132.761719 261.941406 130.039062 262.972656 C 133.058594 261.941406 135.550781 260.15625 137.621094 258.019531 M 108.527344 256.902344 C 109.863281 258.535156 111.457031 259.9375 113.28125 261.054688 C 113.035156 260.890625 110.570312 259.273438 108.527344 256.902344 M 146.480469 239.96875 C 146.128906 241.167969 145.800781 242.324219 145.527344 243.441406 C 145.433594 243.808594 145.339844 244.175781 145.230469 244.542969 C 145.871094 242.570312 146.265625 240.933594 146.480469 239.96875 M 158.953125 214.335938 C 155.699219 218.964844 153.097656 223.621094 151.015625 228.085938 C 152.894531 224.164062 155.480469 219.425781 158.953125 214.335938 " fill-opacity="1" fill-rule="nonzero"/><g mask="url(#646e01516f)"><g transform="matrix(1, 0, 0, 1, 103, 220)"><g clip-path="url(#6a759438c5)"><g clip-path="url(#7d74571cf0)"><path fill="#222222" d="M 1.335938 16.6875 C 1.171875 17.464844 1.050781 18.226562 0.941406 18.988281 C 1.050781 18.226562 1.1875 17.464844 1.335938 16.6875 M 7.84375 0.40625 C 6.835938 1.929688 4.5625 5.785156 2.683594 11.707031 C 3.882812 8.042969 5.636719 4.246094 7.84375 0.40625 " fill-opacity="1" fill-rule="nonzero"/></g></g></g></g><g clip-path="url(#d439da537c)"><g mask="url(#3f7699e152)"><g transform="matrix(1, 0, 0, 1, 102, 196)"><g clip-path="url(#bb1bc58b40)"><g clip-path="url(#2b6a780f4b)"><path fill="#222222" d="M 73.027344 0.992188 C 72.945312 1.058594 70.15625 3.226562 66.65625 6.683594 C 64.140625 9.160156 61.253906 12.316406 58.707031 15.832031 C 58.09375 16.675781 57.507812 17.519531 56.953125 18.335938 C 53.699219 22.949219 51.097656 27.621094 49.015625 32.085938 C 45.855469 38.6875 44.671875 43.015625 44.671875 43.015625 C 44.671875 43.015625 44.617188 43.355469 44.480469 43.96875 C 44.113281 45.167969 43.800781 46.324219 43.527344 47.441406 C 43.433594 47.808594 43.339844 48.175781 43.230469 48.542969 C 41.921875 52.542969 40.308594 57.414062 35.621094 62.019531 C 33.332031 64.277344 30.761719 65.953125 28.039062 66.972656 C 26.226562 67.601562 24.160156 68.207031 21.957031 68.207031 C 21.722656 68.207031 21.492188 68.207031 21.246094 68.191406 C 17.410156 68.054688 14.238281 67.042969 11.292969 65.054688 C 11.035156 64.890625 10.777344 64.714844 10.515625 64.523438 C 8.980469 63.421875 7.742188 62.429688 6.542969 60.902344 C 5.523438 59.609375 4.214844 58.03125 3.410156 56.015625 C 1.179688 50.421875 0.308594 42.675781 0.960938 37.609375 C 1.054688 36.847656 2.199219 41.464844 2.351562 40.6875 C 2.402344 40.414062 2.351562 40.019531 2.417969 39.75 C 2.773438 38.265625 3.140625 36.957031 3.546875 35.664062 C 4.757812 32.003906 6.636719 28.246094 8.84375 24.40625 C 9.117188 23.945312 9.25 23.683594 9.277344 23.65625 C 9.25 23.726562 9.101562 24.257812 8.800781 25.128906 C 7.820312 27.917969 5.996094 34.304688 6.898438 40.757812 C 7.863281 47.628906 12.519531 54.953125 20.414062 55.199219 C 20.617188 55.199219 20.835938 55.214844 21.039062 55.214844 C 36.710938 55.214844 37.5 37.816406 49.898438 21.859375 C 59.144531 9.976562 72.796875 1.101562 73.027344 0.992188 Z M 73.027344 0.992188 " fill-opacity="1" fill-rule="nonzero"/></g></g></g></g></g><g mask="url(#dc1f85df1b)"><g transform="matrix(1, 0, 0, 1, 117, 164)"><g clip-path="url(#8f5b6e1cc2)"><g clip-path="url(#e624813c89)"><path fill="#e3ebf2" d="M 69.449219 12.042969 C 60.480469 14.503906 47.601562 22.210938 36.640625 31.671875 C 27.550781 39.527344 23.289062 48.414062 19.871094 55.578125 C 18.195312 59.089844 16.742188 62.125 14.996094 64.410156 C 12.765625 67.324219 10.179688 68.738281 7.117188 68.738281 C 6.652344 68.738281 6.175781 68.710938 5.699219 68.644531 C 3.5625 68.359375 1.914062 67.230469 1.058594 65.5 C -1.242188 60.832031 2.757812 53.113281 7.046875 45.613281 L 7.332031 45.109375 C 10.109375 40.234375 15.800781 33.671875 22.554688 27.519531 C 28.488281 22.117188 38.058594 14.492188 49.96875 8.871094 C 50.964844 8.40625 51.957031 7.917969 52.921875 7.453125 C 59.90625 4.078125 67.121094 0.59375 75.507812 0.539062 L 75.601562 0.539062 C 79.972656 0.539062 80.761719 2.878906 80.898438 3.886719 C 81.320312 7.085938 77.46875 9.835938 69.449219 12.042969 Z M 69.449219 12.042969 " fill-opacity="1" fill-rule="nonzero"/></g></g></g></g><g mask="url(#de299da0e3)"><g transform="matrix(1, 0, 0, 1, 120, 165)"><g clip-path="url(#d047f1eb5f)"><g clip-path="url(#7472ec8098)"><path fill="#e3ebf2" d="M 72.671875 1.035156 L 72.589844 1.035156 C 63.726562 1.105469 56.214844 5.324219 48.222656 9.109375 C 27.542969 18.871094 11.398438 36.15625 6.8125 44.214844 C 3.804688 49.5 -3.984375 62.691406 3.164062 63.667969 C 3.53125 63.722656 3.871094 63.738281 4.210938 63.738281 C 13.945312 63.738281 13.386719 43.34375 31.941406 27.335938 C 42.382812 18.324219 55.722656 9.910156 65.824219 7.136719 C 75.613281 4.4375 77.558594 1.035156 72.671875 1.035156 " fill-opacity="1" fill-rule="nonzero"/></g></g></g></g><g mask="url(#9967454283)"><g transform="matrix(1, 0, 0, 1, 211, 154)"><g clip-path="url(#50cdb6954e)"><g clip-path="url(#16164b9c97)"><path fill="#e3ebf2" d="M 28.636719 50.140625 C 27.5625 61.070312 21.164062 66.039062 14.710938 66.039062 C 8.257812 66.039062 2.363281 61.53125 0.632812 53.351562 C -0.128906 49.757812 1.371094 39.941406 2.472656 26.902344 C 3.058594 19.984375 3.519531 12.144531 3.492188 3.855469 C 3.492188 3.625 3.492188 3.40625 3.507812 3.203125 C 3.617188 1.691406 4.132812 1.007812 4.964844 1.007812 C 5.914062 1.007812 7.277344 1.921875 8.855469 3.5 C 13.375 8.035156 19.789062 18.136719 24.101562 28.628906 C 27.21875 36.238281 29.234375 44.066406 28.636719 50.140625 Z M 28.636719 50.140625 " fill-opacity="1" fill-rule="nonzero"/></g></g></g></g><g mask="url(#f12c0be36e)"><g transform="matrix(1, 0, 0, 1, 219, 180)"><g clip-path="url(#05ae5d0b6c)"><g clip-path="url(#dd46858a6f)"><path fill="#e3ebf2" d="M 7.105469 3.078125 C 7.105469 3.078125 8.832031 9.289062 6.820312 19.945312 C 6.015625 24.179688 1.320312 27.09375 0.570312 30.78125 C -0.21875 34.621094 2.449219 36.703125 5.921875 36.703125 C 10.46875 36.703125 16.390625 33.097656 17.601562 25.09375 C 19.207031 14.542969 15.273438 5.871094 11.773438 1.554688 C 11.230469 0.886719 10.453125 0.4375 9.597656 0.328125 C 9.570312 0.328125 9.542969 0.316406 9.515625 0.316406 C 8.234375 0.140625 7.089844 1.132812 7.089844 2.425781 Z M 7.105469 3.078125 " fill-opacity="1" fill-rule="nonzero"/></g></g></g></g><g clip-path="url(#1e99d4680b)"><path fill="#ffffff" d="M 214.152344 261.136719 C 215.347656 265.832031 220.140625 270.394531 226.921875 272.148438 C 228.390625 272.488281 229.695312 272.640625 230.648438 272.695312 C 231.453125 272.734375 232.1875 272.761719 232.882812 272.761719 C 234.871094 272.761719 236.394531 272.585938 237.769531 272.300781 C 236.148438 272.570312 234.570312 272.707031 233.074219 272.707031 C 223.164062 272.707031 215.867188 267.113281 214.152344 261.136719 " fill-opacity="1" fill-rule="nonzero"/></g><g clip-path="url(#4016ef1fc3)"><g mask="url(#39bf40f991)"><g transform="matrix(1, 0, 0, 1, 213, 219)"><g clip-path="url(#44ea3303fb)"><g clip-path="url(#4af983a2be)"><path fill="#222222" d="M 0.527344 33.355469 C 0.429688 34.0625 0.375 34.800781 0.335938 35.574219 C 0.28125 36.882812 0.335938 38.09375 0.484375 39.222656 C 0.648438 40.148438 0.867188 41.117188 1.167969 42.136719 C 0.269531 38.636719 0.226562 35.671875 0.527344 33.355469 M 59.210938 0.578125 C 58.285156 12.542969 51.644531 29.816406 37.933594 39.359375 C 33.332031 41.796875 28.242188 42.96875 23.476562 42.96875 C 13.839844 42.96875 5.46875 38.160156 4.882812 29.246094 C 4.488281 23.175781 9.375 21.050781 9.375 21.050781 C 9.375 21.050781 7.753906 21.648438 5.863281 23.160156 C 4.269531 24.453125 2.882812 26.15625 1.886719 28.347656 C 2.117188 27.84375 2.296875 27.585938 2.296875 27.585938 C 2.296875 27.585938 -0.359375 44.382812 20.566406 46.847656 C 20.917969 46.886719 21.300781 46.902344 21.707031 46.902344 C 26.132812 46.902344 33.703125 44.640625 37.023438 42.898438 C 48.796875 36.71875 54.910156 24.644531 56.667969 18.75 L 58.300781 11.96875 C 58.449219 11.949219 59.457031 4.429688 59.210938 0.578125 " fill-opacity="1" fill-rule="nonzero"/></g></g></g></g></g><path fill="#56aeff" d="M 214.898438 247.347656 C 214.476562 248.257812 213.824219 249.960938 213.523438 252.355469 C 213.769531 250.449219 214.246094 248.789062 214.898438 247.347656 " fill-opacity="1" fill-rule="nonzero"/><g clip-path="url(#6573fd0f24)"><g mask="url(#9378835a03)"><g transform="matrix(1, 0, 0, 1, 213, 237)"><g clip-path="url(#480fd6a215)"><g clip-path="url(#770e2f7f14)"><path fill="#222222" d="M 56.679688 0.734375 C 54.925781 6.644531 48.8125 18.71875 37.035156 24.886719 C 33.703125 26.628906 26.144531 28.886719 21.722656 28.886719 C 21.3125 28.886719 20.933594 28.875 20.578125 28.832031 C -0.34375 26.382812 2.308594 9.570312 2.308594 9.570312 C 2.308594 9.570312 2.144531 9.828125 1.902344 10.332031 C 1.246094 11.777344 0.769531 13.4375 0.527344 15.34375 C 0.242188 17.65625 0.269531 20.625 1.167969 24.136719 C 2.882812 30.113281 9.578125 35.929688 20.046875 35.785156 C 21.558594 35.765625 23.152344 35.570312 24.769531 35.300781 C 26.0625 35.027344 27.222656 34.671875 28.488281 34.277344 C 31.808594 33.257812 34.832031 31.867188 37.554688 30.140625 C 53.085938 19.726562 56.679688 0.734375 56.679688 0.734375 Z M 56.679688 0.734375 " fill-opacity="1" fill-rule="nonzero"/></g></g></g></g></g><g mask="url(#78e40df4ca)"><g transform="matrix(1, 0, 0, 1, 222, 240)"><g clip-path="url(#6fa1d7b4b4)"><g clip-path="url(#3b263e9c36)"><path fill="#e3ebf2" d="M 41.429688 0.976562 C 41.429688 0.976562 35.03125 6.324219 27.191406 6.324219 L 27.175781 6.324219 C 21.175781 6.324219 18.519531 3.929688 14.964844 2.648438 C 12.691406 1.832031 10.121094 1.152344 7.75 1.152344 C 5.070312 1.152344 2.648438 2.023438 1.175781 4.542969 C -0.796875 7.960938 4.402344 14.886719 16.109375 14.886719 C 16.75 14.886719 17.417969 14.859375 18.109375 14.820312 C 27.339844 14.234375 36.082031 9.074219 41.429688 0.976562 " fill-opacity="1" fill-rule="nonzero"/></g></g></g></g><g mask="url(#fdcc8142dd)"><g transform="matrix(1, 0, 0, 1, 226, 244)"><g clip-path="url(#3e7ae1ad74)"><g clip-path="url(#fadc5e03c8)"><path fill="#e3ebf2" d="M 16.5625 4.464844 C 16.5625 4.464844 13.636719 4.816406 8.804688 3.566406 C 6.882812 3.0625 5.714844 1.167969 4.050781 0.707031 C 2.308594 0.230469 1.25 1.140625 1.113281 2.433594 C 0.933594 4.148438 2.378906 6.53125 6.027344 7.375 C 10.832031 8.480469 14.96875 7.402344 17.09375 6.289062 C 17.421875 6.109375 17.652344 5.839844 17.746094 5.523438 C 17.746094 5.511719 17.746094 5.496094 17.761719 5.496094 C 17.898438 5.019531 17.476562 4.542969 16.875 4.492188 Z M 16.5625 4.464844 " fill-opacity="1" fill-rule="nonzero"/></g></g></g></g><g mask="url(#0761f75509)"><g transform="matrix(1, 0, 0, 1, 245, 179)"><g clip-path="url(#c26f0ad065)"><g clip-path="url(#11204f0ed9)"><path fill="#222222" d="M 24.148438 42.957031 C 22.976562 31.496094 15.175781 17.351562 2.53125 8.476562 L 1.03125 0.648438 C 13.597656 10.503906 25.019531 24.269531 24.148438 42.957031 Z M 24.148438 42.957031 " fill-opacity="1" fill-rule="nonzero"/></g></g></g></g><path fill="#e3ebf2" d="M 245.21875 169.425781 C 245.257812 168.964844 267.910156 185.039062 270.863281 212.550781 C 264.683594 186.644531 251.261719 177.648438 247.503906 175.917969 C 246.851562 173.589844 246.046875 171.386719 245.21875 169.425781 Z M 245.21875 169.425781 " fill-opacity="1" fill-rule="evenodd"/></svg>